<svg xmlns="http://www.w3.org/2000/svg" viewBox="0 0 32 32">
  <!-- Background -->
  <rect width="32" height="32" rx="7" fill="#0a0e17"/>

  <!-- CPU chip body -->
  <rect x="7" y="7" width="18" height="18" rx="2.5" fill="#0d1520" stroke="#65d4ff" stroke-width="1.8"/>

  <!-- CPU pins - top -->
  <line x1="11" y1="2.5" x2="11" y2="7" stroke="#3a6a8e" stroke-width="1.5" stroke-linecap="round"/>
  <line x1="16" y1="2.5" x2="16" y2="7" stroke="#3a6a8e" stroke-width="1.5" stroke-linecap="round"/>
  <line x1="21" y1="2.5" x2="21" y2="7" stroke="#3a6a8e" stroke-width="1.5" stroke-linecap="round"/>
  <!-- CPU pins - bottom -->
  <line x1="11" y1="25" x2="11" y2="29.5" stroke="#3a6a8e" stroke-width="1.5" stroke-linecap="round"/>
  <line x1="16" y1="25" x2="16" y2="29.5" stroke="#3a6a8e" stroke-width="1.5" stroke-linecap="round"/>
  <line x1="21" y1="25" x2="21" y2="29.5" stroke="#3a6a8e" stroke-width="1.5" stroke-linecap="round"/>
  <!-- CPU pins - left -->
  <line x1="2.5" y1="11" x2="7" y2="11" stroke="#3a6a8e" stroke-width="1.5" stroke-linecap="round"/>
  <line x1="2.5" y1="16" x2="7" y2="16" stroke="#3a6a8e" stroke-width="1.5" stroke-linecap="round"/>
  <line x1="2.5" y1="21" x2="7" y2="21" stroke="#3a6a8e" stroke-width="1.5" stroke-linecap="round"/>
  <!-- CPU pins - right -->
  <line x1="25" y1="11" x2="29.5" y2="11" stroke="#3a6a8e" stroke-width="1.5" stroke-linecap="round"/>
  <line x1="25" y1="16" x2="29.5" y2="16" stroke="#3a6a8e" stroke-width="1.5" stroke-linecap="round"/>
  <line x1="25" y1="21" x2="29.5" y2="21" stroke="#3a6a8e" stroke-width="1.5" stroke-linecap="round"/>

  <!-- Maze traces inside chip -->
  <path d="M10 10 h3 v3 M17 10 h5 M10 16 h4 M18 14 v4 h4 M10 19 h3 v3 h4 M20 19 v3"
        fill="none" stroke="#65d4ff" stroke-width="1" stroke-linecap="round" opacity="0.5"/>

  <!-- Ring 0 core -->
  <circle cx="16" cy="16" r="4" fill="none" stroke="#5ce29d" stroke-width="1.5"/>
  <circle cx="16" cy="16" r="1.5" fill="#5ce29d"/>
</svg>
